<?xml version="1.0" standalone="no"?>
<!DOCTYPE svg PUBLIC "-//W3C//DTD SVG 20010904//EN"
 "http://www.w3.org/TR/2001/REC-SVG-20010904/DTD/svg10.dtd">
<svg version="1.0" xmlns="http://www.w3.org/2000/svg"
 width="192.000000pt" height="192.000000pt" viewBox="0 0 192.000000 192.000000"
 preserveAspectRatio="xMidYMid meet">
<metadata>
Created by potrace 1.11, written by Peter Selinger 2001-2013
</metadata>
<g transform="translate(0.000000,192.000000) scale(0.100000,-0.100000)"
fill="#000000" stroke="none">
<path d="M420 1890 c0 -27 -3 -30 -30 -30 l-30 0 0 -90 0 -90 30 0 30 0 0
-210 0 -210 30 0 30 0 0 -120 0 -120 30 0 c27 0 30 -3 30 -30 0 -27 3 -30 30
-30 l30 0 0 -60 0 -60 30 0 30 0 0 -120 0 -120 -150 0 -150 0 0 -30 0 -30 -60
0 -60 0 0 -30 0 -30 -60 0 -60 0 0 -30 c0 -27 -3 -30 -30 -30 -27 0 -30 -3
-30 -30 0 -27 -3 -30 -30 -30 l-30 0 0 -180 0 -180 180 0 180 0 0 120 0 120
90 0 90 0 0 -60 0 -60 30 0 30 0 0 -60 0 -60 30 0 30 0 0 120 0 120 90 0 90 0
0 -120 0 -120 30 0 30 0 0 120 0 120 30 0 30 0 0 -120 0 -120 30 0 30 0 0 60
0 60 30 0 30 0 0 -60 0 -60 30 0 30 0 0 120 0 120 30 0 30 0 0 -120 0 -120 30
0 30 0 0 120 0 120 30 0 30 0 0 -120 0 -120 30 0 30 0 0 120 0 120 90 0 90 0
0 -30 0 -30 -60 0 -60 0 0 -30 c0 -27 3 -30 30 -30 27 0 30 -3 30 -30 0 -27
-3 -30 -30 -30 -27 0 -30 -3 -30 -30 l0 -30 240 0 240 0 0 210 0 210 -30 0
c-27 0 -30 3 -30 30 l0 30 -60 0 -60 0 0 30 0 30 -60 0 -60 0 0 30 0 30 -150
0 -150 0 0 120 0 120 30 0 c27 0 30 3 30 30 0 27 3 30 30 30 27 0 30 3 30 30
0 27 3 30 30 30 27 0 30 3 30 30 0 27 3 30 30 30 l30 0 0 120 0 120 30 0 30 0
0 330 0 330 -600 0 -600 0 0 -30z m720 -60 l0 -30 120 0 120 0 0 -30 0 -30 60
0 60 0 0 -60 0 -60 -180 0 -180 0 0 -30 c0 -27 -3 -30 -30 -30 -27 0 -30 -3
-30 -30 l0 -30 -60 0 -60 0 0 30 0 30 -60 0 -60 0 0 30 0 30 -150 0 -150 0 0
60 0 60 90 0 90 0 0 30 0 30 60 0 60 0 0 30 0 30 150 0 150 0 0 -30z m-540
-360 c0 -27 3 -30 30 -30 27 0 30 3 30 30 l0 30 120 0 120 0 0 -90 0 -90 -180
0 -180 0 0 90 0 90 30 0 c27 0 30 -3 30 -30z m900 -60 l0 -90 -180 0 -180 0 0
90 0 90 180 0 180 0 0 -90z m-480 -150 l0 -180 -90 0 -90 0 0 -30 0 -30 120 0
120 0 0 120 0 120 210 0 210 0 0 -90 0 -90 -30 0 c-27 0 -30 -3 -30 -30 0 -27
-3 -30 -30 -30 -27 0 -30 -3 -30 -30 0 -27 -3 -30 -30 -30 -27 0 -30 -3 -30
-30 0 -27 -3 -30 -30 -30 -27 0 -30 -3 -30 -30 0 -27 -3 -30 -30 -30 -27 0
-30 -3 -30 -30 0 -27 3 -30 30 -30 l30 0 0 -150 0 -150 -240 0 -240 0 0 30 c0
27 -3 30 -30 30 l-30 0 0 120 0 120 60 0 60 0 0 30 0 30 -60 0 -60 0 0 30 c0
27 -3 30 -30 30 -27 0 -30 3 -30 30 0 27 -3 30 -30 30 l-30 0 0 60 0 60 -30 0
-30 0 0 90 0 90 210 0 210 0 0 90 0 90 30 0 30 0 0 -180z"/>
<path d="M660 1410 c0 -27 3 -30 30 -30 27 0 30 3 30 30 0 27 -3 30 -30 30
-27 0 -30 -3 -30 -30z"/>
<path d="M1260 1410 c0 -27 3 -30 30 -30 27 0 30 3 30 30 0 27 -3 30 -30 30
-27 0 -30 -3 -30 -30z"/>
<path d="M900 870 l0 -30 90 0 90 0 0 30 0 30 -90 0 -90 0 0 -30z"/>
<path d="M840 750 l0 -30 180 0 180 0 0 30 0 30 -180 0 -180 0 0 -30z"/>
<path d="M420 150 c0 -27 3 -30 30 -30 27 0 30 3 30 30 0 27 -3 30 -30 30 -27
0 -30 -3 -30 -30z"/>
<path d="M720 90 l0 -90 30 0 30 0 0 90 0 90 -30 0 -30 0 0 -90z"/>
<path d="M420 30 l0 -30 60 0 60 0 0 30 0 30 -60 0 -60 0 0 -30z"/>
</g>
</svg>
